HIERARCHY
ROOT Hips
{
	OFFSET 0.000000 0.000000 0.000000
	CHANNELS 6 Xposition Yposition Zposition Zrotation Yrotation Xrotation 
	JOINT LowerBack
	{
		OFFSET 0.000000 0.000000 0.000000
		CHANNELS 3 Zrotation Yrotation Xrotation
		JOINT Spine
		{
			OFFSET 0.028270 2.035590 -0.193380
			CHANNELS 3 Zrotation Yrotation Xrotation
			JOINT Spine1
			{
				OFFSET 0.056720 2.048850 -0.042750
				CHANNELS 3 Zrotation Yrotation Xrotation
				JOINT Neck
				{
					OFFSET 0.000000 0.000000 0.000000
					CHANNELS 3 Zrotation Yrotation Xrotation
					JOINT Neck1
					{
						OFFSET -0.054170 1.746240 0.172020
						CHANNELS 3 Zrotation Yrotation Xrotation
						JOINT Head
						{
							OFFSET 0.104070 1.761360 -0.123970
							CHANNELS 3 Zrotation Yrotation Xrotation
							End Site
							{
								OFFSET 0.000000 0.000000 0.000000
							}
						}
					}
				}
				JOINT LeftShoulder
				{
					OFFSET 0.000000 0.000000 0.000000
					CHANNELS 3 Zrotation Yrotation Xrotation
					JOINT LeftArm
					{
						OFFSET 3.362410 1.200890 -0.311210
						CHANNELS 3 Zrotation Yrotation Xrotation
						JOINT LeftForeArm
						{
							OFFSET 4.983000 -0.000000 -0.000000
							CHANNELS 3 Zrotation Yrotation Xrotation
							JOINT LeftHand
							{
								OFFSET 3.483560 -0.000000 -0.000000
								CHANNELS 3 Zrotation Yrotation Xrotation
								JOINT LeftFingerBase
								{
									OFFSET 0.000000 0.000000 0.000000
									CHANNELS 3 Zrotation Yrotation Xrotation
									JOINT LeftHandIndex1
									{
										OFFSET 0.715260 -0.000000 -0.000000
										CHANNELS 3 Zrotation Yrotation Xrotation
										End Site
										{
											OFFSET 0.000000 0.000000 0.000000
										}
									}
								}
								JOINT LThumb
								{
									OFFSET 0.000000 0.000000 0.000000
									CHANNELS 3 Zrotation Yrotation Xrotation
									End Site
									{
										OFFSET 0.000000 0.000000 0.000000
									}
								}
							}
						}
					}
				}
				JOINT RightShoulder
				{
					OFFSET 0.000000 0.000000 0.000000
					CHANNELS 3 Zrotation Yrotation Xrotation
					JOINT RightArm
					{
						OFFSET -3.136600 1.374050 -0.404650
						CHANNELS 3 Zrotation Yrotation Xrotation
						JOINT RightForeArm
						{
							OFFSET -5.241900 -0.000000 -0.000000
							CHANNELS 3 Zrotation Yrotation Xrotation
							JOINT RightHand
							{
								OFFSET -3.444170 -0.000000 -0.000000
								CHANNELS 3 Zrotation Yrotation Xrotation
								JOINT RightFingerBase
								{
									OFFSET 0.000000 0.000000 0.000000
									CHANNELS 3 Zrotation Yrotation Xrotation
									JOINT RightHandIndex1
									{
										OFFSET -0.622530 -0.000000 -0.000000
										CHANNELS 3 Zrotation Yrotation Xrotation
										End Site
										{
											OFFSET 0.000000 0.000000 0.000000
										}
									}
								}
								JOINT RThumb
								{
									OFFSET 0.000000 0.000000 0.000000
									CHANNELS 3 Zrotation Yrotation Xrotation
									End Site
									{
										OFFSET 0.000000 0.000000 0.000000
									}
								}
							}
						}
					}
				}
			}
		}
	}
}
}
MOTION
Frames: 17
Frame Time: 0.008333
14.573692 12.798866 2.643534 101.786427 -88.661011 -18.499290 2.110542 -2.319126 0.147477 -0.296115 -2.398563 -1.993659 -4.132667 -2.574606 0.451247 9.894931 -13.892374 -13.611183 -1.239826 0.069734 -3.128315 0.000000 0.000000 0.000000 -3.101592 13.673610 4.862506 -67.271752 26.771787 -15.814560 0.246793 -14.399032 -0.004909 1.421857 -5.626958 -0.071192 0.011903 0.152128 -0.000000 0.000000 0.000000 0.000000 0.000000 0.000000 0.000000 15.394542 -11.898217 4.528526 62.488634 -17.747269 -29.893538 -0.618596 9.453909 -0.012019 -2.807192 17.479865 -0.441234 0.009011 -0.314213 0.000000 0.000000 0.000000 0.000000 0.000000 0.000000 0.000000 
14.550375 12.785294 2.644080 101.695895 -88.687751 -18.333242 2.130687 -2.327153 0.160767 -0.294822 -2.406724 -1.991062 -4.146008 -2.583239 0.431651 9.939589 -13.938013 -13.656090 -1.246823 0.070080 -3.146703 0.000000 0.000000 0.000000 -3.202264 13.751535 4.861419 -67.361408 26.489191 -15.731885 0.263568 -14.749630 -0.005196 1.482978 -5.644269 -0.074494 0.012539 0.154316 -0.000000 0.000000 0.000000 0.000000 0.000000 0.000000 0.000000 15.485041 -11.923743 4.532215 62.529510 -17.572070 -29.730323 -0.623927 9.600238 -0.012226 -2.814185 17.546362 -0.444035 0.008679 -0.316015 0.000000 0.000000 0.000000 0.000000 0.000000 0.000000 0.000000 
14.525840 12.771432 2.644303 101.607991 -88.710692 -18.169048 2.149994 -2.335372 0.162068 -0.293947 -2.415641 -1.992866 -4.160458 -2.592823 0.413053 9.984985 -13.977354 -13.699236 -1.256514 0.070098 -3.163904 0.000000 0.000000 0.000000 -3.316177 13.822978 4.858963 -67.442927 26.193022 -15.656935 0.278768 -15.094822 -0.005479 1.536944 -5.674869 -0.077596 0.013221 0.156613 -0.000000 0.000000 0.000000 0.000000 0.000000 0.000000 0.000000 15.585655 -11.944743 4.536093 62.581223 -17.404676 -29.564931 -0.632677 9.783058 -0.012536 -2.890925 17.518288 -0.455536 0.009192 -0.317095 0.000000 0.000000 0.000000 0.000000 0.000000 0.000000 0.000000 
14.499669 12.757212 2.644114 101.622941 -88.723557 -18.105947 2.165270 -2.345504 0.148347 -0.294329 -2.427124 -1.999974 -4.175580 -2.605170 0.396190 10.031515 -14.009674 -13.739308 -1.268886 0.069757 -3.179355 0.000000 0.000000 0.000000 -3.448368 13.883640 4.854204 -67.513220 25.884270 -15.602098 0.291562 -15.434255 -0.005751 1.574154 -5.737267 -0.080398 0.014048 0.159212 0.000000 0.000000 0.000000 0.000000 0.000000 0.000000 0.000000 15.696394 -11.963123 4.540773 62.642360 -17.228392 -29.444237 -0.646792 9.979329 -0.012960 -3.035091 17.396229 -0.475039 0.010473 -0.317368 0.000000 0.000000 0.000000 0.000000 0.000000 0.000000 0.000000 
14.471410 12.741265 2.643565 101.474010 -88.736379 -17.862340 2.182837 -2.353467 0.094367 -0.294545 -2.438438 -2.020691 -4.194350 -2.617998 0.384405 10.090435 -14.043407 -13.783039 -1.285470 0.068985 -3.194225 0.000000 0.000000 0.000000 -3.594326 13.956671 4.849451 -67.550105 25.548758 -15.547004 0.302625 -15.738356 -0.006014 1.632816 -5.758640 -0.083699 0.014425 0.161139 0.000000 0.000000 0.000000 0.000000 0.000000 0.000000 0.000000 15.835635 -11.986033 4.543124 62.689374 -17.082440 -29.182977 -0.661259 10.257962 -0.013553 -3.331515 17.111288 -0.513243 0.013888 -0.316449 0.000000 0.000000 0.000000 0.000000 0.000000 0.000000 0.000000 
14.441241 12.725136 2.642575 101.386171 -88.740530 -17.680558 2.197174 -2.363966 0.022983 -0.296571 -2.453196 -2.047970 -4.216712 -2.634562 0.374156 10.160926 -14.064234 -13.826792 -1.306208 0.067759 -3.208241 0.000000 0.000000 0.000000 -3.758220 14.021670 4.843122 -67.570764 25.193754 -15.529761 0.311773 -16.034749 -0.006267 1.677507 -5.809927 -0.086801 0.014933 0.163250 0.000000 0.000000 0.000000 0.000000 0.000000 0.000000 0.000000 15.994868 -12.001372 4.545012 62.725103 -16.921920 -29.008109 -0.675924 10.501116 -0.014139 -3.612124 16.879269 -0.549247 0.017115 -0.315810 0.000000 0.000000 0.000000 0.000000 0.000000 0.000000 0.000000 
14.409273 12.709437 2.641287 101.213544 -88.740576 -17.420571 2.212617 -2.374117 -0.061458 -0.298107 -2.468291 -2.080043 -4.239323 -2.651773 0.364978 10.239004 -14.089375 -13.875981 -1.329234 0.066367 -3.223363 0.000000 0.000000 0.000000 -3.943693 14.078084 4.836501 -67.572246 24.801989 -15.550508 0.320591 -16.312515 -0.006526 1.727107 -5.861685 -0.090102 0.015348 0.165291 0.000000 0.000000 0.000000 0.000000 0.000000 0.000000 0.000000 16.175302 -12.022545 4.550860 62.761453 -16.733252 -28.735985 -0.700290 10.811142 -0.015068 -4.097751 16.365595 -0.604653 0.022912 -0.312764 0.000000 0.000000 0.000000 0.000000 0.000000 0.000000 0.000000 
14.375834 12.693956 2.639733 100.928797 -88.739751 -17.054252 2.230667 -2.385675 -0.158045 -0.299447 -2.485527 -2.116867 -4.265045 -2.671446 0.356221 10.333177 -14.112164 -13.933950 -1.355823 0.064750 -3.240820 0.000000 0.000000 0.000000 -4.147923 14.139448 4.830026 -67.550544 24.367874 -15.603251 0.329495 -16.583187 -0.006802 1.783233 -5.917498 -0.094003 0.015692 0.167277 0.000000 0.000000 0.000000 0.000000 0.000000 0.000000 0.000000 16.383598 -12.043050 4.558301 62.777895 -16.514396 -28.426345 -0.726993 11.136031 -0.016140 -4.656258 15.756027 -0.661961 0.029730 -0.308737 0.000000 0.000000 0.000000 0.000000 0.000000 0.000000 0.000000 
14.340750 12.678805 2.637952 100.488881 -88.740400 -16.542120 2.252129 -2.399433 -0.265250 -0.300647 -2.505681 -2.157610 -4.295245 -2.694356 0.349035 10.449079 -14.134404 -14.004761 -1.385970 0.062984 -3.262000 0.000000 0.000000 0.000000 -4.366358 14.219751 4.823823 -67.502654 23.875769 -15.676338 0.339142 -16.847986 -0.007104 1.855596 -5.967401 -0.098605 0.015874 0.169072 0.000000 0.000000 0.000000 0.000000 0.000000 0.000000 0.000000 16.622869 -12.065975 4.566471 62.756116 -16.236176 -28.128408 -0.752134 11.403015 -0.017217 -5.205488 15.198328 -0.714368 0.036530 -0.304851 0.000000 0.000000 0.000000 0.000000 0.000000 0.000000 0.000000 
14.303883 12.664287 2.636024 99.854546 -88.745397 -15.849929 2.278853 -2.415433 -0.381799 -0.301550 -2.528846 -2.202221 -4.331497 -2.720629 0.342695 10.588350 -14.147847 -14.089056 -1.421422 0.060906 -3.287160 0.000000 0.000000 0.000000 -4.599450 14.316431 4.817822 -67.429108 23.325105 -15.769367 0.349654 -17.114958 -0.007445 1.947491 -6.012606 -0.104406 0.015891 0.170666 0.000000 0.000000 0.000000 0.000000 0.000000 0.000000 0.000000 16.897856 -12.083101 4.575232 62.689683 -15.888351 -27.884595 -0.773753 11.578239 -0.018209 -5.696411 14.769711 -0.760175 0.042637 -0.301780 0.000000 0.000000 0.000000 0.000000 0.000000 0.000000 0.000000 
14.265389 12.650624 2.634000 98.996046 -88.756917 -14.951655 2.312005 -2.432885 -0.505635 -0.301725 -2.554209 -2.250377 -4.373514 -2.749448 0.336007 10.747568 -14.145914 -14.186705 -1.463009 0.058430 -3.316389 0.000000 0.000000 0.000000 -4.847003 14.425614 4.812228 -67.330218 22.712561 -15.875781 0.361043 -17.387099 -0.007832 2.062495 -6.052497 -0.111309 0.015719 0.172073 0.000000 0.000000 0.000000 0.000000 0.000000 0.000000 0.000000 17.207072 -12.086533 4.585005 62.581802 -15.470128 -27.683207 -0.791253 11.664116 -0.019086 -6.125201 14.464053 -0.800880 0.047979 -0.299547 0.000000 0.000000 0.000000 0.000000 0.000000 0.000000 0.000000 
14.224747 12.638273 2.631935 97.875415 -88.777361 -13.817195 2.352377 -2.450603 -0.634577 -0.300834 -2.580548 -2.301776 -4.421002 -2.779579 0.328185 10.922285 -14.121411 -14.296667 -1.511522 0.055456 -3.349364 0.000000 0.000000 0.000000 -5.106752 14.541459 4.807092 -67.208028 22.034493 -15.985999 0.372801 -17.663338 -0.008271 2.202388 -6.087667 -0.119711 0.015338 0.173302 0.000000 0.000000 0.000000 0.000000 0.000000 0.000000 0.000000 17.546980 -12.067865 4.596131 62.438425 -14.982464 -27.518927 -0.803843 11.662402 -0.019827 -6.486338 14.276942 -0.837483 0.052475 -0.298158 0.000000 0.000000 0.000000 0.000000 0.000000 0.000000 0.000000 
14.182312 12.627507 2.629816 96.486207 -88.806902 -12.445203 2.398882 -2.467410 -0.766689 -0.299196 -2.606660 -2.356160 -4.473515 -2.809799 0.318240 11.107184 -14.066228 -14.416418 -1.567951 0.051836 -3.385318 0.000000 0.000000 0.000000 -5.375071 14.654058 4.802416 -67.064084 21.289858 -16.089754 0.384298 -17.939063 -0.008760 2.366775 -6.120488 -0.129413 0.014754 0.174379 0.000000 0.000000 0.000000 0.000000 0.000000 0.000000 0.000000 17.914306 -12.018036 4.608871 62.266818 -14.429199 -27.390551 -0.811200 11.576284 -0.020415 -6.776183 14.202679 -0.870585 0.056065 -0.297607 0.000000 0.000000 0.000000 0.000000 0.000000 0.000000 0.000000 
14.137651 12.618687 2.627643 94.814800 -88.845192 -10.828639 2.451185 -2.482534 -0.901120 -0.296797 -2.631782 -2.413518 -4.530582 -2.839324 0.305860 11.295488 -13.970062 -14.542529 -1.633329 0.047397 -3.423085 0.000000 0.000000 0.000000 -5.647136 14.756441 4.798478 -66.900091 20.474097 -16.173277 0.394580 -18.201973 -0.009291 2.553069 -6.148402 -0.140316 0.013981 0.175265 0.000000 0.000000 0.000000 0.000000 0.000000 0.000000 0.000000 18.303353 -11.926005 4.622993 62.076713 -13.818848 -27.304015 -0.812976 11.414108 -0.020839 -6.992270 14.232210 -0.900385 0.058715 -0.297849 0.000000 0.000000 0.000000 0.000000 0.000000 0.000000 0.000000 
14.090793 12.612162 2.625298 92.886564 -88.890743 -8.998407 2.505832 -2.494140 -1.036493 -0.294623 -2.654018 -2.473590 -4.591208 -2.866220 0.290784 11.480805 -13.830456 -14.670745 -1.707453 0.042081 -3.461253 0.000000 0.000000 0.000000 -5.915436 14.831372 4.794914 -66.720743 19.588675 -16.233111 0.402837 -18.438213 -0.009865 2.759282 -6.183786 -0.152618 0.013029 0.176079 0.000000 0.000000 0.000000 0.000000 0.000000 0.000000 0.000000 18.706170 -11.789692 4.639466 61.877025 -13.145412 -27.280186 -0.809934 11.159773 -0.021092 -7.130891 14.376667 -0.927584 0.060334 -0.298948 0.000000 0.000000 0.000000 0.000000 0.000000 0.000000 0.000000 
14.041645 12.608427 2.622733 90.715359 -88.941308 -6.975410 2.559889 -2.500629 -1.171331 -0.293408 -2.671667 -2.535887 -4.654258 -2.888731 0.273416 11.656744 -13.645868 -14.796907 -1.789871 0.035857 -3.498378 0.000000 0.000000 0.000000 -6.169777 14.867060 4.791851 -66.530376 18.627820 -16.264328 0.408283 -18.625398 -0.010479 2.982819 -6.232698 -0.166420 0.011904 0.176868 0.000000 0.000000 0.000000 0.000000 0.000000 0.000000 0.000000 19.113954 -11.607732 4.658622 61.677466 -12.407176 -27.330575 -0.802791 10.808665 -0.021187 -7.196811 14.638256 -0.953181 0.060950 -0.300899 0.000000 0.000000 0.000000 0.000000 0.000000 0.000000 0.000000 
13.990170 12.607649 2.619765 88.400265 -88.987257 -4.859442 2.608980 -2.503662 -1.309100 -0.294273 -2.686459 -2.601563 -4.718857 -2.908553 0.253969 11.817697 -13.406340 -14.915268 -1.881296 0.028550 -3.532402 0.000000 0.000000 0.000000 -6.402892 14.855563 4.790252 -66.329207 17.589495 -16.261984 0.409803 -18.744699 -0.011113 3.218491 -6.288196 -0.181321 0.010618 0.177571 0.000000 0.000000 0.000000 0.000000 0.000000 0.000000 0.000000 19.521216 -11.370903 4.679292 61.489257 -11.623338 -27.450949 -0.791746 10.388268 -0.021155 -7.203249 14.991274 -0.976977 0.060748 -0.303506 0.000000 0.000000 0.000000 0.000000 0.000000 0.000000 0.000000 
